<?xml version="1.0" encoding="UTF-8"?>
<!DOCTYPE svg PUBLIC "-//W3C//DTD SVG 1.1//EN" "http://www.w3.org/Graphics/SVG/1.1/DTD/svg11.dtd">
<!-- Creator: CorelDRAW -->
<svg xmlns="http://www.w3.org/2000/svg" xml:space="preserve" width="340px" height="156px" version="1.1" style="shape-rendering:geometricPrecision; text-rendering:geometricPrecision; image-rendering:optimizeQuality; fill-rule:evenodd; clip-rule:evenodd"
viewBox="0 0 340 156"
 xmlns:xlink="http://www.w3.org/1999/xlink"
 xmlns:xodm="http://www.corel.com/coreldraw/odm/2003">
 <defs>
  <style type="text/css">
   <![CDATA[
    .str0 {stroke:white;stroke-width:0.9;stroke-miterlimit:22.9256}
    .fil0 {fill:white}
    .fil2 {fill:#1B3A8C;fill-rule:nonzero}
    .fil1 {fill:#1B3A8C;fill-rule:nonzero}
   ]]>
  </style>
 </defs>
 <g id="Ebene_x0020_1">
  <metadata id="CorelCorpID_0Corel-Layer"/>
  <!-- background rect removed for transparency -->
  <path class="fil1" d="M56.72 46.28l-19.71 0c-3.61,0 -6.54,2.94 -6.54,6.55l0 52.41c0,0.78 -0.64,1.42 -1.42,1.42 -0.78,0 -1.42,-0.64 -1.42,-1.42l0 -52.41c0,-3.61 -2.94,-6.55 -6.55,-6.55l-15.32 0c-3.61,0 -6.55,2.94 -6.55,6.55 0,3.61 2.94,6.54 6.55,6.54l12.67 0c1.46,0 2.64,-1.17 2.64,-2.63 0,-1.45 -1.18,-2.63 -2.64,-2.63l-12.67 0c-0.71,0 -1.29,-0.58 -1.29,-1.28 0,-0.71 0.58,-1.29 1.29,-1.29l15.32 0c0.71,0 1.29,0.58 1.29,1.29l0 52.41c0,3.68 2.99,6.68 6.68,6.68 3.68,0 6.68,-3 6.68,-6.68l0 -52.41c0,-0.71 0.58,-1.29 1.28,-1.29l19.71 0c0.71,0 1.29,0.58 1.29,1.29 0,0.7 -0.58,1.28 -1.29,1.28l-15.79 0c-1.46,0 -2.64,1.18 -2.64,2.63l0 51.09c0,1.45 1.18,2.63 2.64,2.63 1.45,0 2.63,-1.18 2.63,-2.63l0 -48.46 13.16 0c3.61,0 6.55,-2.93 6.55,-6.54 0,-3.61 -2.94,-6.55 -6.55,-6.55zm29.31 23.79l0 0c-1.46,0 -2.63,1.18 -2.63,2.63l0 32.91c0,0.58 -0.47,1.05 -1.05,1.05 -0.57,0 -1.04,-0.47 -1.04,-1.05l0 -29.35c0,-3.7 -3.01,-6.71 -6.71,-6.71 -3.69,0 -6.7,3.01 -6.7,6.71l0 31.99c0,1.45 1.17,2.63 2.63,2.63 1.45,0 2.63,-1.18 2.63,-2.63l0 -31.99c0,-0.8 0.65,-1.45 1.44,-1.45 0.8,0 1.45,0.65 1.45,1.45l0 29.35c0,3.48 2.83,6.31 6.3,6.31 3.48,0 6.31,-2.83 6.31,-6.31l0 -32.91c0,-1.45 -1.18,-2.63 -2.63,-2.63zm-8.07 -16.54l0 0c-1.69,0 -3.06,1.37 -3.06,3.06 0,1.69 1.37,3.06 3.06,3.06 1.69,0 3.07,-1.37 3.07,-3.06 0,-1.69 -1.38,-3.06 -3.07,-3.06zm0 -7.78l0 0c-5.98,0 -10.84,4.86 -10.84,10.84 0,5.98 4.86,10.84 10.84,10.84 5.98,0 10.84,-4.86 10.84,-10.84 0,-5.98 -4.86,-10.84 -10.84,-10.84zm0 16.42l0 0c-3.07,0 -5.58,-2.5 -5.58,-5.58 0,-3.08 2.51,-5.58 5.58,-5.58 3.08,0 5.58,2.5 5.58,5.58 0,3.08 -2.5,5.58 -5.58,5.58zm158.16 -15.89l0 0 -19.71 0c-3.61,0 -6.54,2.94 -6.54,6.55l0 52.41c0,0.78 -0.64,1.42 -1.42,1.42 -0.78,0 -1.42,-0.64 -1.42,-1.42l0 -52.41c0,-3.61 -2.94,-6.55 -6.55,-6.55l-15.33 0c-3.6,0 -6.54,2.94 -6.54,6.55 0,3.61 2.94,6.54 6.54,6.54l12.68 0c1.46,0 2.63,-1.17 2.63,-2.63 0,-1.45 -1.17,-2.63 -2.63,-2.63l-12.68 0c-0.7,0 -1.28,-0.58 -1.28,-1.28 0,-0.71 0.58,-1.29 1.28,-1.29l15.33 0c0.71,0 1.29,0.58 1.29,1.29l0 52.41c0,3.68 2.99,6.68 6.68,6.68 3.68,0 6.68,-3 6.68,-6.68l0 -52.41c0,-0.71 0.58,-1.29 1.28,-1.29l19.71 0c0.71,0 1.28,0.58 1.28,1.29 0,0.7 -0.57,1.28 -1.28,1.28l-15.79 0c-1.46,0 -2.64,1.18 -2.64,2.63l0 51.09c0,1.45 1.18,2.63 2.64,2.63 1.45,0 2.63,-1.18 2.63,-2.63l0 -48.46 13.16 0c3.61,0 6.55,-2.93 6.55,-6.54 0,-3.61 -2.94,-6.55 -6.55,-6.55zm29.31 23.79l0 0c-1.46,0 -2.63,1.18 -2.63,2.63l0 32.91c0,0.58 -0.47,1.05 -1.05,1.05 -0.57,0 -1.04,-0.47 -1.04,-1.05l0 -29.35c0,-3.7 -3.01,-6.71 -6.71,-6.71 -3.7,0 -6.7,3.01 -6.7,6.71l0 31.99c0,1.45 1.17,2.63 2.63,2.63 1.45,0 2.63,-1.18 2.63,-2.63l0 -31.99c0,-0.8 0.65,-1.45 1.44,-1.45 0.8,0 1.45,0.65 1.45,1.45l0 29.35c0,3.48 2.83,6.31 6.3,6.31 3.48,0 6.31,-2.83 6.31,-6.31l0 -32.91c0,-1.45 -1.18,-2.63 -2.63,-2.63zm-8.07 -16.54l0 0c-1.69,0 -3.06,1.37 -3.06,3.06 0,1.69 1.37,3.06 3.06,3.06 1.69,0 3.07,-1.37 3.07,-3.06 0,-1.69 -1.38,-3.06 -3.07,-3.06zm0 -7.78l0 0c-5.98,0 -10.84,4.86 -10.84,10.84 0,5.98 4.86,10.84 10.84,10.84 5.98,0 10.84,-4.86 10.84,-10.84 0,-5.98 -4.86,-10.84 -10.84,-10.84zm0 16.42l0 0c-3.07,0 -5.58,-2.5 -5.58,-5.58 0,-3.08 2.51,-5.58 5.58,-5.58 3.08,0 5.58,2.5 5.58,5.58 0,3.08 -2.5,5.58 -5.58,5.58zm-125.75 -15.72l0 0 -8.88 0c-0.49,-0.01 -2.45,0.08 -4,1.59 -0.77,0.75 -1.69,2.12 -1.69,4.38l0 53.19c0,0.58 -0.47,1.05 -1.04,1.05 -0.58,0 -1.04,-0.47 -1.04,-1.05l0 -53.3c0,-3.7 -3.01,-6.71 -6.71,-6.71 -3.7,0 -6.71,3.01 -6.71,6.71l0 55.94c0,1.45 1.18,2.63 2.63,2.63 1.46,0 2.63,-1.18 2.63,-2.63l0 -55.94c0,-0.79 0.65,-1.44 1.45,-1.44 0.79,0 1.44,0.65 1.44,1.44l0 53.3c0,3.48 2.83,6.31 6.31,6.31 3.47,0 6.3,-2.83 6.3,-6.31l0 -53.19c0,-0.68 0.22,-0.7 0.41,-0.7 0,0 0,0 0,0l8.9 0c8.94,0 16.21,7.27 16.21,16.21 0,8.94 -7.27,16.21 -16.19,16.21l-1.94 -0.01c-0.61,0 -1.11,-0.5 -1.11,-1.12 0,-0.61 0.5,-1.11 1.11,-1.11l1.92 0c7.7,0 13.97,-6.27 13.97,-13.97 0,-7.7 -6.27,-13.97 -13.97,-13.97l-5.77 0c-1.46,0 -2.64,1.18 -2.64,2.63 0,1.45 1.18,2.63 2.64,2.63l5.77 0c4.8,0 8.7,3.91 8.7,8.71 0,4.8 -3.9,8.7 -8.7,8.7l-1.92 0c-3.51,0 -6.37,2.87 -6.37,6.38 0,3.52 2.86,6.38 6.35,6.38l1.94 0.01c11.84,0 21.47,-9.63 21.47,-21.47 0,-11.84 -9.63,-21.48 -21.47,-21.48zm201.88 28.75l0 0 -13.56 0c-1.46,0 -2.63,1.17 -2.63,2.63 0,1.45 1.17,2.63 2.63,2.63l13.47 0 0 25.05c0,0.57 -0.47,1.04 -1.05,1.04 -0.7,0 -1.46,-0.61 -1.46,-1.04l0 -16.24c0,-3.7 -3.01,-6.71 -6.71,-6.71 -3.69,0 -6.7,3.01 -6.7,6.71l0 16.2c-2.35,0.6 -4.69,0.9 -6.97,0.9 -15.09,0 -27.37,-12.27 -27.37,-27.36 0,-15.09 12.28,-27.36 27.37,-27.36 9.66,0 18.35,4.9 23.25,13.12 0.01,0.01 0.02,0.03 0.02,0.04 0.11,0.19 0.17,0.4 0.17,0.62 0,0.69 -0.56,1.25 -1.25,1.25 -0.45,0 -0.85,-0.23 -1.11,-0.66l-0.11 -0.18c-4.57,-7.26 -12.18,-11.43 -20.87,-11.43 -13.77,0 -24.97,11.2 -24.97,24.97 0,13.77 11.2,24.97 24.97,24.97 3.64,0 6.6,-2.96 6.6,-6.6 0,-3.6 -2.89,-6.53 -6.47,-6.6 -0.03,0 -0.06,0 -0.08,0 -6.42,0 -11.64,-5.22 -11.64,-11.64 0,-6.41 5.22,-11.63 11.64,-11.63 2.63,0 5.12,0.86 7.19,2.49 1.14,0.9 2.79,0.7 3.69,-0.44 0.9,-1.14 0.7,-2.8 -0.44,-3.69 -3,-2.37 -6.61,-3.62 -10.44,-3.62 -9.32,0 -16.9,7.58 -16.9,16.89 0,9.29 7.54,16.86 16.81,16.9 0.77,0.01 1.37,0.59 1.37,1.34 0,0.74 -0.6,1.34 -1.33,1.34 -10.87,0 -19.71,-8.84 -19.71,-19.71 0,-10.87 8.84,-19.7 19.71,-19.7 6.84,0 12.83,3.27 16.41,8.96 0,0 0.18,0.29 0.23,0.37 1.2,1.82 3.26,2.93 5.45,2.93 3.59,0 6.51,-2.92 6.51,-6.51 0,-1.07 -0.26,-2.13 -0.77,-3.08 -0.04,-0.06 -0.13,-0.23 -0.14,-0.25 -5.86,-9.84 -16.25,-15.72 -27.79,-15.72 -17.99,0 -32.63,14.64 -32.63,32.63 0,17.99 14.64,32.62 32.63,32.62 2.98,0 6.02,-0.42 9.05,-1.27 2.29,-0.64 3.24,-2.88 3.18,-4.84l0 -16.25c0,-0.8 0.65,-1.45 1.44,-1.45 0.8,0 1.45,0.65 1.45,1.45l0 16.24c0,3.36 3.14,6.31 6.72,6.31 3.48,0 6.31,-2.83 6.31,-6.31l0 -25.15c0,-2.85 -2.32,-5.16 -5.17,-5.16z"/>
  <path class="fil2" d="M333.03 33.81c-1.42,0 -2.64,0.5 -3.64,1.51 -1,1 -1.5,2.22 -1.5,3.64 0,1.43 0.5,2.65 1.49,3.66 1,1 2.21,1.52 3.65,1.52 1.41,0 2.63,-0.52 3.63,-1.52 1,-1.01 1.5,-2.23 1.5,-3.66 0,-1.42 -0.5,-2.64 -1.5,-3.64 -1,-1.01 -2.22,-1.51 -3.63,-1.51zm5.98 5.15c0,1.65 -0.58,3.06 -1.75,4.24 -1.17,1.17 -2.58,1.76 -4.23,1.76 -1.67,0 -3.07,-0.59 -4.24,-1.76 -1.15,-1.16 -1.73,-2.58 -1.73,-4.24 0,-1.64 0.58,-3.05 1.75,-4.22 1.17,-1.15 2.57,-1.74 4.22,-1.74 1.65,0 3.06,0.59 4.23,1.74 1.17,1.17 1.75,2.57 1.75,4.22zm-4.43 -1.31c0,-0.48 -0.14,-0.79 -0.44,-0.96 -0.28,-0.15 -0.75,-0.24 -1.38,-0.24l-1 0 0 2.37 1.05 0c0.48,0 0.85,-0.05 1.1,-0.13 0.45,-0.18 0.67,-0.53 0.67,-1.04zm-1.67 -1.99c0.82,0 1.4,0.08 1.78,0.25 0.68,0.26 1.02,0.83 1.02,1.65 0,0.58 -0.22,1.01 -0.63,1.29 -0.24,0.15 -0.55,0.26 -0.95,0.32 0.51,0.09 0.88,0.3 1.11,0.64 0.25,0.35 0.37,0.69 0.37,1.01l0 0.49c0,0.15 0,0.31 0.02,0.5 0.01,0.16 0.03,0.28 0.04,0.33l0.06 0.08 -1.09 0c0,-0.01 -0.01,-0.05 -0.01,-0.07 0,-0.01 -0.02,-0.04 -0.02,-0.06l-0.03 -0.22 0 -0.51c0,-0.77 -0.2,-1.27 -0.62,-1.52 -0.23,-0.13 -0.67,-0.2 -1.28,-0.2l-0.92 0 0 2.58 -1.15 0 0 -6.56 2.3 0z"/>
 </g>
</svg>
